ffmpeg version 8.0.1 Copyright (c) 2000-2025 the FFmpeg developers
  built with Apple clang version 17.0.0 (clang-1700.6.3.2)
  configuration: --prefix=/opt/homebrew/Cellar/ffmpeg/8.0.1_4 --enable-shared --enable-pthreads --enable-version3 --cc=clang --host-cflags= --host-ldflags= --enable-ffplay --enable-gpl --enable-libsvtav1 --enable-libopus --enable-libx264 --enable-libmp3lame --enable-libdav1d --enable-libvpx --enable-libx265 --enable-openssl --enable-videotoolbox --enable-audiotoolbox --enable-neon
  libavutil      60.  8.100 / 60.  8.100
  libavcodec     62. 11.100 / 62. 11.100
  libavformat    62.  3.100 / 62.  3.100
  libavdevice    62.  1.100 / 62.  1.100
  libavfilter    11.  4.100 / 11.  4.100
  libswscale      9.  1.100 /  9.  1.100
  libswresample   6.  1.100 /  6.  1.100
[aist#0:0/pcm_s24le @ 0xaa3008180] Guessed Channel Layout: stereo
Input #0, wav, from '/Volumes/WORK 2TB/WORK 2026/Bronson Cancer Equity Project/Cancer Survivors/Zamiyah/Audio/TASCAM_1087S12.wav':
  Duration: 00:23:49.30, bitrate: 2304 kb/s
  Stream #0:0: Audio: pcm_s24le ([1][0][0][0] / 0x0001), 48000 Hz, stereo, s32 (24 bit), 2304 kb/s
Stream mapping:
  Stream #0:0 -> #0:0 (pcm_s24le (native) -> pcm_s16le (native))
Press [q] to stop, [?] for help
Output #0, wav, to '/tmp/1087S12_16k.wav':
  Metadata:
    ISFT            : Lavf62.3.100
  Stream #0:0: Audio: pcm_s16le ([1][0][0][0] / 0x0001), 16000 Hz, mono, s16, 256 kb/s
    Metadata:
      encoder         : Lavc62.11.100 pcm_s16le
size=   19968KiB time=00:10:40.85 bitrate= 255.3kbits/s speed=1.27e+03x elapsed=0:00:00.50    size=   43008KiB time=00:23:00.26 bitrate= 255.3kbits/s speed=1.37e+03x elapsed=0:00:01.00    [out#0/wav @ 0xaa2c44180] video:0KiB audio:44666KiB subtitle:0KiB other streams:0KiB global headers:0KiB muxing overhead: 0.000171%
size=   44666KiB time=00:23:49.29 bitrate= 256.0kbits/s speed=1.38e+03x elapsed=0:00:01.03    
